<?xml version="1.0" encoding="utf-8"?>
<!-- Generator: Adobe Illustrator 25.2.1, SVG Export Plug-In . SVG Version: 6.00 Build 0)  -->
<svg version="1.1" id="Layer_1" xmlns="http://www.w3.org/2000/svg" xmlns:xlink="http://www.w3.org/1999/xlink" x="0px" y="0px"
	 viewBox="0 0 1000 456" style="enable-background:new 0 0 1000 456;" xml:space="preserve">
<style type="text/css">
	.st0{fill:#131313;}
</style>
<g>
	<g>
		<g>
			<path class="st0" d="M74.42,282.87c-0.83,9.6,0.37,18.5,3.6,26.69c3.22,8.19,7.78,15.25,13.69,21.18
				c5.9,5.93,12.99,10.59,21.29,13.98c8.29,3.39,17.07,5.08,26.35,5.08c10.68,0,20.58-1.96,29.72-5.9
				c9.13-3.93,18.62-9.7,28.45-17.28l17.28,28.53c-11.52,8.77-23.75,15.63-36.67,20.56c-12.93,4.93-26.84,7.4-41.73,7.4
				c-15.18,0-28.95-2.6-41.31-7.8c-12.37-5.2-22.96-12.5-31.77-21.92c-8.82-9.41-15.63-20.58-20.44-33.51
				c-4.82-12.92-7.22-26.98-7.22-42.15c0-14.61,2.27-28.1,6.8-40.47c4.54-12.36,10.87-23.04,18.98-32.04
				c8.11-8.99,17.93-15.95,29.44-20.87c11.51-4.91,24.3-7.38,38.35-7.38c10.39,0,20.93,1.98,31.61,5.94
				c10.68,3.95,20.23,10.23,28.66,18.85c8.43,8.62,15.31,19.63,20.65,33.04c5.34,13.42,8.01,29.44,8.01,48.07H74.42z M159.57,221.86
				c-7.87-7.73-18.13-11.59-30.77-11.59c-12.65,0-23.39,3.87-32.25,11.59c-8.85,7.73-14.83,18.2-17.92,31.4h96.95
				C172.78,240.06,167.44,229.6,159.57,221.86z"/>
			<path class="st0" d="M407.43,378.46H236.29l4.64-19.29l110.44-143.84H237.55l10.12-33.3h163.98l-5.48,19.24l-109.6,143.9h120.56
				L407.43,378.46z"/>
		</g>
		<g>
			<path class="st0" d="M619.46,319.66c-5.34,13.35-12.86,24.81-22.55,34.35c-9.7,9.56-21.36,16.86-34.99,21.92
				c-13.63,5.06-28.87,7.59-45.74,7.59c-12.65,0-24.59-1.34-35.83-4c-11.24-2.68-24.03-6.81-38.36-12.44V88.03l37.94-11.38v115.08
				c8.15-4.78,16.37-8.36,24.66-10.75c8.29-2.38,18.76-3.58,31.4-3.58c13.49,0,25.78,2.39,36.88,7.17
				c11.1,4.78,20.72,11.45,28.87,20.02c8.15,8.58,14.47,18.83,18.97,30.77c4.49,11.95,6.74,25.08,6.74,39.41
				C627.47,291.35,624.79,306.31,619.46,319.66z M584.47,249.5c-2.81-8.05-6.68-14.91-11.59-20.57
				c-4.92-5.65-10.68-10.1-17.28-13.36c-6.61-3.25-13.84-4.88-21.71-4.88c-9.84,0-18.76,1.42-26.77,4.24
				c-8.01,2.83-16.94,8.34-26.77,16.54v111.54c6.74,2.27,13.14,4.03,19.18,5.3c6.04,1.28,12.01,1.91,17.92,1.91
				c10.4,0,19.95-1.84,28.66-5.51c8.71-3.68,16.23-8.83,22.55-15.48c6.32-6.64,11.24-14.48,14.75-23.53
				c3.51-9.05,5.27-18.94,5.27-29.69C588.69,266.39,587.28,257.56,584.47,249.5z"/>
			<polygon class="st0" points="688.16,145.78 648.96,106.15 688.16,66.95 727.79,106.15 			"/>
			<polygon class="st0" points="667.51,378.46 667.51,185.4 705.45,169.8 705.45,378.46 			"/>
			<path class="st0" d="M844.55,376.78c-2.53,1.69-6.05,2.88-10.54,3.58c-4.5,0.7-8.71,1.05-12.65,1.05
				c-6.19,0-12.82-1.13-19.9-3.37c-7.09-2.25-13.65-5.69-19.68-10.33c-6.03-4.64-11.07-10.39-15.08-17.28
				c-4.03-6.88-6.03-14.82-6.03-23.82V90.55l38.78-11.8v242.8c0,4.78,0.84,8.92,2.53,12.44c1.69,3.52,3.79,6.4,6.32,8.64
				c2.53,2.25,5.34,3.87,8.43,4.85c3.09,0.99,6.18,1.48,9.27,1.48c3.37,0,7.02-0.91,10.96-2.74c3.93-1.82,7.59-3.86,10.96-6.11
				L844.55,376.78z"/>
			<path class="st0" d="M960.05,376.78c-2.53,1.69-6.05,2.88-10.54,3.58c-4.5,0.7-8.71,1.05-12.65,1.05
				c-6.19,0-12.82-1.13-19.9-3.37c-7.09-2.25-13.65-5.69-19.68-10.33c-6.03-4.64-11.07-10.39-15.08-17.28
				c-4.03-6.88-6.03-14.82-6.03-23.82V90.55l38.78-11.8v242.8c0,4.78,0.84,8.92,2.53,12.44c1.69,3.52,3.79,6.4,6.32,8.64
				c2.53,2.25,5.34,3.87,8.43,4.85c3.09,0.99,6.18,1.48,9.27,1.48c3.37,0,7.02-0.91,10.96-2.74c3.93-1.82,7.59-3.86,10.96-6.11
				L960.05,376.78z"/>
		</g>
	</g>
</g>
</svg>
