<svg width="332" height="113" viewBox="0 0 332 113" fill="none" xmlns="http://www.w3.org/2000/svg">
<path d="M13.8385 77.0546C13.5484 80.478 13.9836 83.6692 15.1151 86.5704C16.2755 89.5006 17.9002 92.0246 19.989 94.1424C22.1069 96.2603 24.6309 97.9139 27.5901 99.1324C30.5492 100.351 33.6825 100.96 36.9898 100.96C40.7903 100.96 44.3298 100.264 47.6081 98.8423C50.8574 97.4498 54.2517 95.3899 57.7621 92.6628L63.9416 102.846C59.822 105.979 55.4702 108.416 50.8574 110.186C46.2445 111.956 41.2835 112.826 35.9744 112.826C30.5492 112.826 25.6463 111.898 21.2365 110.041C16.8267 108.184 13.0552 105.573 9.89296 102.208C6.75971 98.8423 4.32273 94.8677 2.61105 90.2549C0.870349 85.671 0 80.652 0 75.2269C0 70.0048 0.812325 65.1888 2.43698 60.7791C4.06163 56.3693 6.32453 52.5688 9.2257 49.3485C12.1269 46.1282 15.6373 43.6622 19.7279 41.8925C23.8476 40.1518 28.4024 39.2524 33.4214 39.2524C37.1349 39.2524 40.9064 39.9487 44.7069 41.3703C48.5074 42.7919 51.9308 45.0258 54.948 48.101C57.9652 51.1762 60.4022 55.0928 62.317 59.8797C64.2317 64.6666 65.1891 70.3819 65.1891 77.0256H13.8385V77.0546ZM44.2427 55.2959C41.4286 52.5398 37.7731 51.1472 33.2473 51.1472C28.7215 51.1472 24.892 52.5398 21.7297 55.2959C18.5674 58.052 16.4496 61.7945 15.3471 66.4944H49.958C48.9426 61.7945 47.0278 58.052 44.2427 55.2959Z" fill="white"/>
<path d="M132.699 111.172H71.6299L73.2835 104.296L112.71 52.9455H72.0941L75.6915 41.0508H134.208L132.264 47.9265L93.1275 99.3061H136.152L132.699 111.172Z" fill="white"/>
<path d="M208.39 90.1969C206.475 94.9548 203.806 99.0454 200.354 102.469C196.901 105.892 192.724 108.474 187.879 110.302C183.005 112.101 177.58 113 171.545 113C167.019 113 162.755 112.536 158.751 111.578C154.748 110.621 150.164 109.141 145.058 107.14V7.51377L158.606 3.45215V44.5326C161.507 42.8209 164.437 41.5444 167.397 40.7031C170.356 39.8617 174.098 39.4266 178.595 39.4266C183.411 39.4266 187.792 40.2679 191.766 41.9796C195.741 43.6913 199.164 46.0702 202.065 49.1164C204.967 52.1917 207.23 55.8471 208.825 60.1118C210.421 64.3765 211.233 69.0764 211.233 74.1825C211.233 80.1008 210.276 85.439 208.39 90.1969ZM195.886 65.1599C194.871 62.2877 193.507 59.8507 191.737 57.8199C189.968 55.7891 187.937 54.2225 185.558 53.062C183.208 51.9016 180.626 51.3213 177.812 51.3213C174.301 51.3213 171.11 51.8145 168.267 52.8299C165.395 53.8453 162.232 55.8181 158.722 58.7193V98.5232C161.13 99.3355 163.422 99.9738 165.569 100.409C167.716 100.873 169.863 101.105 171.951 101.105C175.665 101.105 179.059 100.438 182.192 99.1325C185.297 97.8269 187.995 95.9702 190.229 93.6203C192.492 91.2413 194.232 88.4562 195.48 85.2069C196.727 81.9866 197.366 78.4472 197.366 74.6176C197.395 71.1943 196.901 68.032 195.886 65.1599Z" fill="#F5BC18"/>
<path d="M232.905 28.1413L218.893 13.9836L232.905 0L247.034 13.9836L232.905 28.1413Z" fill="white"/>
<path d="M225.536 111.173V42.2699L239.056 36.6997V111.173H225.536Z" fill="#F5BC18"/>
<path d="M288.723 110.592C287.824 111.201 286.576 111.608 284.951 111.869C283.356 112.13 281.847 112.246 280.426 112.246C278.221 112.246 275.842 111.84 273.318 111.056C270.794 110.244 268.444 109.026 266.297 107.372C264.15 105.718 262.351 103.658 260.901 101.192C259.45 98.7264 258.754 95.9123 258.754 92.692V8.41323L272.592 4.20654V90.8642C272.592 92.5759 272.883 94.0555 273.492 95.303C274.101 96.5505 274.855 97.5949 275.755 98.3783C276.654 99.1906 277.669 99.7708 278.772 100.119C279.874 100.467 280.977 100.641 282.079 100.641C283.298 100.641 284.574 100.322 285.996 99.6548C287.388 99.0165 288.694 98.2912 289.912 97.4789L288.723 110.592Z" fill="#F5BC18"/>
<path d="M329.948 110.592C329.049 111.201 327.802 111.608 326.177 111.869C324.581 112.13 323.073 112.246 321.651 112.246C319.446 112.246 317.067 111.84 314.543 111.056C312.019 110.244 309.669 109.026 307.523 107.372C305.376 105.718 303.577 103.658 302.126 101.192C300.676 98.7264 299.979 95.9123 299.979 92.692V8.41323L313.818 4.20654V90.8642C313.818 92.5759 314.108 94.0555 314.717 95.303C315.327 96.5505 316.081 97.5949 316.98 98.3783C317.88 99.1906 318.895 99.7708 319.998 100.119C321.1 100.467 322.202 100.641 323.305 100.641C324.523 100.641 325.8 100.322 327.221 99.6548C328.614 99.0165 329.919 98.2912 331.138 97.4789L329.948 110.592Z" fill="#F5BC18"/>
</svg>
