<svg width="98" height="54" viewBox="0 0 98 54" fill="none" xmlns="http://www.w3.org/2000/svg">
<path d="M9.94317 27.3904C9.73025 29.8531 10.0381 32.1363 10.8667 34.2373C11.6927 36.3382 12.8625 38.1494 14.3786 39.6706C15.8921 41.1918 17.711 42.3873 19.8402 43.2569C21.9668 44.1266 24.2192 44.5601 26.5998 44.5601C29.3395 44.5601 31.8792 44.0573 34.2239 43.0466C36.566 42.0384 39.0005 40.5582 41.5222 38.6137L45.9551 45.9325C42.9999 48.1823 39.8625 49.9421 36.5481 51.2068C33.2311 52.4715 29.6628 53.1052 25.843 53.1052C21.9489 53.1052 18.4164 52.4382 15.2457 51.1042C12.0724 49.7703 9.35572 47.8976 7.09567 45.481C4.83306 43.0671 3.08608 40.2016 1.85216 36.8847C0.615677 33.5703 0 29.9634 0 26.0718C0 22.3239 0.582327 18.8633 1.74442 15.69C2.90907 12.5193 4.53292 9.77951 6.61339 7.47072C8.69386 5.1645 11.213 3.37904 14.1657 2.1169C17.1184 0.857329 20.3994 0.223694 24.0037 0.223694C26.669 0.223694 29.3729 0.731628 32.1127 1.74749C34.8524 2.76079 37.3023 4.37181 39.4649 6.58312C41.6274 8.79442 43.3924 11.6188 44.7622 15.0589C46.1321 18.5016 46.8171 22.6112 46.8171 27.3904H9.94317ZM31.7869 11.7394C29.768 9.75642 27.1359 8.76621 23.8934 8.76621C20.6482 8.76621 17.8931 9.75898 15.6202 11.7394C13.3499 13.7224 11.8159 16.4083 11.0232 19.7945H35.8939C35.1756 16.4083 33.8058 13.725 31.7869 11.7394Z" fill="black"/>
<path d="M95.3709 51.9123H51.468L52.6583 46.9638L80.9897 10.0643H51.7913L54.3874 1.52179H96.4534L95.0477 6.45746L66.9318 43.3724H97.8592L95.3709 51.9123Z" fill="black"/>
</svg>
