<svg width="24" height="13" viewBox="0 0 24 13" fill="none" xmlns="http://www.w3.org/2000/svg">
<path d="M2.38208 6.35611C2.33214 6.93172 2.40705 7.46831 2.60181 7.95612C2.80156 8.4488 3.08122 8.87319 3.44078 9.22929C3.80533 9.58539 4.2398 9.86344 4.74917 10.0683C5.25855 10.2732 5.79788 10.3756 6.36719 10.3756C7.02138 10.3756 7.63063 10.2586 8.19494 10.0195C8.75426 9.78539 9.33854 9.43905 9.9428 8.98051L11.0065 10.6927C10.2974 11.2195 9.54828 11.6293 8.75426 11.9269C7.96023 12.2244 7.10628 12.3708 6.1924 12.3708C5.25855 12.3708 4.41458 12.2147 3.65551 11.9025C2.89645 11.5903 2.24724 11.1512 1.70291 10.5854C1.16357 10.0195 0.744087 9.35124 0.449448 8.57563C0.149816 7.8049 0 6.96099 0 6.04879C0 5.17074 0.139828 4.36099 0.419485 3.61952C0.699142 2.87806 1.08866 2.23903 1.58805 1.69757C2.08744 1.1561 2.6917 0.741465 3.39583 0.443903C4.10496 0.15122 4.889 0 5.75294 0C6.39215 0 7.04136 0.117074 7.69555 0.356099C8.34975 0.595124 8.93903 0.970734 9.45839 1.48781C9.97775 2.00488 10.3972 2.66342 10.7268 3.4683C11.0564 4.27318 11.2212 5.23416 11.2212 6.35123H2.38208V6.35611ZM7.61565 2.69757C7.13125 2.23415 6.50202 2 5.72298 2C4.94393 2 4.28474 2.23415 3.74041 2.69757C3.19608 3.16098 2.83152 3.79025 2.64176 4.5805H8.59945C8.42466 3.79025 8.09507 3.16098 7.61565 2.69757Z" fill="white"/>
<path d="M22.8417 12.0927H12.3296L12.6142 10.9366L19.4009 2.30243H12.4095L13.0287 0.302429H23.1014L22.7668 1.45853L16.03 10.0976H23.436L22.8417 12.0927Z" fill="white"/>
</svg>
