<svg width="800" height="1082" viewBox="0 0 800 1082" fill="none" xmlns="http://www.w3.org/2000/svg">
<path d="M800 0.5H2.15002V1081.98H800V0.5Z" fill="black"/>
<path d="M232.64 389.057L207.964 404.235L223.141 428.911L247.818 413.734L232.64 389.057Z" fill="#F5BC18"/>
<path d="M262.3 352.52L258.05 299.02L311.55 294.77L315.8 348.27L262.3 352.52ZM262.98 303.22L266.5 347.6L310.88 344.08L307.36 299.7L262.98 303.22Z" fill="#F5BC18"/>
<path d="M161.62 740.34L193.63 715.92L218.06 747.93L186.05 772.35L161.62 740.34Z" fill="#F5BC18"/>
<path d="M159.54 160.83V52.08L180.94 43.3V160.84H159.54V160.83Z" fill="#F5BC18"/>
<path d="M350.88 1054.16L305.86 1050.98L304.11 1075.71H308.69L310.1 1055.86L346 1058.4L344.78 1075.71H349.36L350.88 1054.16Z" fill="#F5BC18"/>
<path d="M621.84 213.23C628.63 270.28 651.7 314.4 690.4 344.36C722.61 369.3 761.95 381.44 799.29 386.73V385.21C762.23 379.93 723.24 367.87 691.33 343.16C652.96 313.45 630.09 269.68 623.35 213.05C612.16 119.13 571.13 51.55 523.65 10.64H521.4C569.14 51.2 610.6 118.85 621.84 213.23Z" fill="#F7CC52"/>
<path d="M607.4 219.51C614.29 276.67 637.44 320.88 676.22 350.9C712.6 379.07 758.02 390.91 799.3 395.01V393.49C758.29 389.4 713.23 377.63 677.15 349.7C638.71 319.94 615.75 276.08 608.91 219.33C597 120.51 552.21 50.81 501.72 10.64H499.34C550.12 50.38 595.42 120.16 607.4 219.51Z" fill="#F7CC52"/>
<path d="M589.84 227.62C577.2 121.52 526.49 49.03 471.4 10.64H468.78C524.2 48.47 575.6 121.03 588.32 227.8C595.11 284.85 618.18 328.96 656.88 358.93C698.96 391.51 753.21 402.26 799.28 404.42V402.9C753.47 400.75 699.57 390.07 657.81 357.73C619.46 328.02 596.59 284.25 589.84 227.62Z" fill="#F7CC52"/>
<path d="M578.67 232.48C565.48 121.72 510.79 47.6 452.95 10.64H450.18C508.38 46.92 563.88 121.12 577.16 232.66C583.95 289.71 607.02 333.83 645.72 363.79C691.26 399.05 751.04 408.73 799.29 409.64V408.13C751.3 407.23 691.86 397.6 646.65 362.59C608.29 332.88 585.41 289.1 578.67 232.48Z" fill="#F7CC52"/>
<path d="M41.42 875.39C38.09 875.39 34.79 875.51 31.52 875.74C35.17 876 38.77 876.39 42.34 876.92C118.32 877.42 179.98 939.37 179.98 1015.47C179.98 1041.44 172.79 1059.67 160.31 1080.47H162.08C174.42 1059.62 181.51 1041.4 181.51 1015.47C181.5 938.23 118.66 875.39 41.42 875.39Z" fill="#F5BC18"/>
<path d="M31.52 877.27C29.71 877.14 27.8899 877.05 26.0699 876.99C27.0499 877.14 28.03 877.3 29 877.47C29.84 877.4 30.68 877.33 31.52 877.27Z" fill="#F5BC18"/>
<path d="M31.52 875.74C28.25 875.51 24.95 875.39 21.62 875.39C18.81 875.39 16.02 875.48 13.25 875.65C16.58 875.85 19.88 876.16 23.15 876.58C25.91 876.22 28.71 875.94 31.52 875.74Z" fill="#F5BC18"/>
<path d="M31.52 877.27C103.32 882.36 160.18 942.4 160.18 1015.47C160.18 1041.44 152.99 1059.67 140.51 1080.47H142.28C154.62 1059.62 161.71 1041.4 161.71 1015.47C161.71 945.27 109.8 886.97 42.34 876.92C42.03 876.92 41.73 876.91 41.42 876.91C38.09 876.91 34.79 877.03 31.52 877.27Z" fill="#F5BC18"/>
<path d="M26.0699 876.99C27.8999 877.05 29.72 877.14 31.52 877.27C34.79 877.04 38.09 876.91 41.42 876.91C41.73 876.91 42.03 876.92 42.34 876.92C38.78 876.39 35.17 876 31.52 875.74C28.71 875.94 25.91 876.22 23.15 876.58C24.12 876.71 25.0999 876.84 26.0699 876.99Z" fill="#F5BC18"/>
<path d="M20.7 876.92C18.2 876.94 15.71 877.02 13.25 877.17C14.6 877.25 15.95 877.35 17.29 877.47C18.43 877.27 19.56 877.09 20.7 876.92Z" fill="#F5BC18"/>
<path d="M29 877.47C27.04 877.65 25.09 877.86 23.15 878.11C90.95 887.08 143.44 945.25 143.44 1015.46C143.44 1041.43 136.25 1059.66 123.77 1080.46H125.54C137.88 1059.61 144.97 1041.39 144.97 1015.46C144.96 946.45 94.78 888.94 29 877.47Z" fill="#F5BC18"/>
<path d="M23.15 878.11C25.09 877.85 27.04 877.64 29 877.47C28.03 877.3 27.0499 877.14 26.0699 876.99C24.5899 876.94 23.11 876.91 21.63 876.91C21.32 876.91 21.02 876.92 20.71 876.92C19.57 877.09 18.43 877.27 17.3 877.47C19.26 877.65 21.21 877.86 23.15 878.11Z" fill="#F5BC18"/>
<path d="M4.88 876.91C7.69 876.91 10.48 877 13.25 877.17C15.72 877.02 18.2 876.94 20.7 876.92C21.51 876.8 22.33 876.68 23.14 876.58C19.87 876.15 16.57 875.84 13.24 875.65C8.90999 875.91 4.64004 876.35 0.420044 876.99C1.91004 876.94 3.39 876.91 4.88 876.91Z" fill="#F5BC18"/>
<path d="M26.0699 876.99C25.0999 876.84 24.13 876.71 23.15 876.58C22.33 876.69 21.52 876.8 20.71 876.92C21.02 876.92 21.32 876.91 21.63 876.91C23.11 876.91 24.5899 876.94 26.0699 876.99Z" fill="#F5BC18"/>
<path d="M767.25 930.06V747.39H764C740.08 747.39 719.15 750.89 701.81 757.78C684.48 764.69 670.01 773.74 658.83 784.69C647.61 795.69 639.31 808.33 634.15 822.27C629.02 836.15 626.42 850.03 626.42 863.53C626.42 881.73 629.66 898.53 636.04 913.51C642.44 928.49 651.62 941.44 663.32 952.01C674.99 962.55 689.02 970.86 705.01 976.74C720.97 982.6 738.63 985.57 757.46 985.57C772.15 985.57 786.16 983.79 799.29 980.28V973.5C786.23 977.18 772.22 979.06 757.47 979.06C739.4 979.06 722.5 976.22 707.26 970.62C692.05 965.03 678.74 957.14 667.68 947.16C656.68 937.22 648.05 925.03 642.03 910.93C636 896.77 632.94 880.82 632.94 863.52C632.94 850.8 635.41 837.68 640.28 824.54C645.09 811.51 652.88 799.67 663.41 789.36C673.98 779.02 687.71 770.44 704.24 763.85C720.02 757.57 739.03 754.24 760.76 753.94V936.1L763.73 936.36C776.36 937.44 788.26 935.83 799.06 931.58C799.14 931.55 799.22 931.51 799.3 931.48V924.4C798.43 924.78 797.56 925.16 796.66 925.51C787.63 929.07 777.76 930.6 767.25 930.06Z" fill="#F5BC18"/>
<path d="M684.3 822.74C673.92 833.32 668.66 847.23 668.66 864.08C668.66 880.85 673.87 895.35 684.16 907.15C694.39 918.86 708.36 926.86 725.71 930.92L729.71 931.86V800.67L725.78 801.51C708.48 805.19 694.52 812.33 684.3 822.74ZM723.2 923.56C709.06 919.58 697.6 912.64 689.08 902.87C679.85 892.29 675.18 879.25 675.18 864.08C675.18 849 679.81 836.63 688.95 827.31C697.48 818.62 709 812.4 723.2 808.79V923.56Z" fill="#F5BC18"/>
<path d="M661.97 509.06L632.83 500.76V715.62L681.58 730.44V588.19L799.29 678.62V670.41L675.07 574.97V721.64L639.34 710.78V509.38L659.01 514.99L799.29 621.9V613.72L662.46 509.43L661.97 509.06Z" fill="#F5BC18"/>
<path d="M54.22 162.78C60.55 164.28 67.28 165.03 74.41 165.03C83.91 165.03 92.5001 163.61 100.18 160.76C107.86 157.91 114.43 153.8 119.9 148.42C125.36 143.05 129.6 136.6 132.61 129.09C135.62 121.58 137.12 113.17 137.13 103.82C137.13 95.75 135.86 88.37 133.33 81.64C130.8 74.92 127.23 69.16 122.64 64.33C118.04 59.51 112.62 55.75 106.36 53.06C100.09 50.38 93.1699 49.03 85.5699 49.03C78.4399 49.03 72.54 49.71 67.87 51.05C63.2 52.39 58.57 54.41 53.98 57.1V1.64001H32.59V155.78C40.68 158.95 47.89 161.27 54.22 162.78ZM54.22 79.46C59.77 74.85 64.7901 71.74 69.3101 70.15C73.8201 68.56 78.85 67.76 84.39 67.76C88.83 67.76 92.9 68.68 96.62 70.51C100.34 72.34 103.59 74.85 106.36 78.03C109.13 81.22 111.31 85.08 112.9 89.61C114.48 94.15 115.28 99.13 115.28 104.52C115.28 110.58 114.29 116.14 112.31 121.23C110.34 126.33 107.56 130.74 104 134.47C100.44 138.21 96.19 141.11 91.29 143.18C86.37 145.25 80.99 146.28 75.13 146.28C71.8 146.28 68.43 145.92 65.03 145.2C61.62 144.49 58.02 143.5 54.22 142.22V79.46Z" fill="#F5BC18"/>
<path d="M171.34 31.24L193.67 8.94001L186.28 1.64001H156.56L149.25 8.94001L171.34 31.24Z" fill="#F5BC18"/>
<path d="M215.6 146.41C217.86 150.29 220.7 153.53 224.1 156.14C227.5 158.75 231.2 160.69 235.19 161.95C239.18 163.22 242.93 163.85 246.41 163.85C248.62 163.85 251 163.65 253.54 163.26C256.07 162.86 258.05 162.19 259.48 161.24L261.37 140.61C259.47 141.88 257.41 143.02 255.19 144.05C252.97 145.08 250.92 145.59 249.01 145.59C247.27 145.59 245.53 145.32 243.78 144.76C242.03 144.21 240.45 143.3 239.03 142.03C237.6 140.76 236.42 139.14 235.47 137.16C234.52 135.18 234.05 132.85 234.05 130.16V1.64001H212.2V133.01C212.2 138.08 213.33 142.54 215.6 146.41Z" fill="#F5BC18"/>
<path d="M280.69 146.41C282.95 150.29 285.78 153.53 289.19 156.14C292.59 158.75 296.29 160.69 300.28 161.95C304.27 163.22 308.02 163.85 311.5 163.85C313.71 163.85 316.09 163.65 318.63 163.26C321.16 162.86 323.14 162.19 324.57 161.24L326.47 140.61C324.57 141.88 322.51 143.02 320.29 144.05C318.07 145.08 316.01 145.59 314.11 145.59C312.37 145.59 310.63 145.32 308.89 144.76C307.14 144.21 305.56 143.3 304.13 142.03C302.7 140.76 301.52 139.14 300.57 137.16C299.62 135.18 299.15 132.85 299.15 130.16V1.64001H277.29V133.01C277.29 138.08 278.42 142.54 280.69 146.41Z" fill="#F5BC18"/>
</svg>
